<svg width="339" height="110" viewBox="0 0 339 110" fill="none" xmlns="http://www.w3.org/2000/svg">
<path d="M24.5 58.42V52.89H41.16V78.16C38.8733 78.58 36.2833 78.9067 33.39 79.14C30.5433 79.42 28.0233 79.56 25.83 79.56C19.95 79.56 15.5867 78.93 12.74 77.67C9.94 76.3633 8.00333 74.03 6.93 70.67C5.90333 67.2633 5.39 62.0133 5.39 54.92C5.39 47.8733 5.92667 42.6467 7 39.24C8.07333 35.8333 10.01 33.5 12.81 32.24C15.6567 30.9333 19.9967 30.28 25.83 30.28C28.1167 30.28 30.66 30.42 33.46 30.7C36.3067 30.98 38.8033 31.3067 40.95 31.68V37C35.63 36.2533 31.57 35.88 28.77 35.88C23.2167 35.88 19.3433 36.1833 17.15 36.79C15.0033 37.3967 13.4867 38.9833 12.6 41.55C11.76 44.1167 11.34 48.5733 11.34 54.92C11.34 60.8 11.6667 65.0233 12.32 67.59C12.9733 70.1567 14.28 71.8833 16.24 72.77C18.2 73.6567 21.42 74.1 25.9 74.1C27.3 74.1 28.9333 74.0533 30.8 73.96C32.6667 73.82 34.1833 73.68 35.35 73.54V58.42H24.5ZM53.253 33.5V26.99H59.273V33.5H53.253ZM53.463 79V43.3H59.133V79H53.463ZM74.1765 79V48.48H66.9665V43.3H74.1765V32.94H79.8465V43.3H88.3865V48.48H79.8465V79H74.1765ZM90.3027 91.04V86.07H115.433V91.04H90.3027ZM138.489 79.56C135.922 79.56 133.052 79.4667 129.879 79.28C126.752 79.0933 123.976 78.86 121.549 78.58V73.05C127.616 73.6567 132.679 73.96 136.739 73.96C139.259 73.96 141.242 73.8667 142.689 73.68C144.182 73.4467 145.442 73.05 146.469 72.49C147.402 71.93 148.009 71.1133 148.289 70.04C148.569 68.92 148.709 67.45 148.709 65.63C148.709 63.4367 148.592 61.8967 148.359 61.01C148.126 60.0767 147.566 59.4 146.679 58.98C145.839 58.56 144.369 58.2567 142.269 58.07L130.369 56.74C127.476 56.4133 125.282 55.7367 123.789 54.71C122.342 53.6367 121.362 52.26 120.849 50.58C120.382 48.8533 120.149 46.6133 120.149 43.86C120.149 40.0333 120.802 37.14 122.109 35.18C123.462 33.22 125.329 31.9133 127.709 31.26C130.136 30.6067 133.379 30.28 137.439 30.28C140.146 30.28 142.899 30.3967 145.699 30.63C148.499 30.8633 150.716 31.1433 152.349 31.47V36.79C150.576 36.51 148.382 36.3 145.769 36.16C143.156 35.9733 140.729 35.88 138.489 35.88C135.876 35.88 133.776 35.9967 132.189 36.23C130.602 36.4633 129.366 36.86 128.479 37.42C127.499 37.98 126.869 38.7267 126.589 39.66C126.309 40.5933 126.169 41.9233 126.169 43.65C126.169 45.5633 126.309 46.9633 126.589 47.85C126.869 48.69 127.406 49.32 128.199 49.74C128.992 50.1133 130.299 50.3933 132.119 50.58L143.879 51.91C146.679 52.19 148.849 52.68 150.389 53.38C151.929 54.08 153.049 55.34 153.749 57.16C154.402 58.84 154.729 61.5233 154.729 65.21C154.729 69.4567 154.076 72.63 152.769 74.73C151.462 76.7833 149.712 78.1133 147.519 78.72C145.326 79.28 142.316 79.56 138.489 79.56ZM194.132 63.18H169.702C169.702 66.5867 169.936 69.0133 170.402 70.46C170.869 71.9067 171.872 72.9333 173.412 73.54C174.999 74.1 177.636 74.38 181.322 74.38C184.916 74.38 188.719 74.1233 192.732 73.61V78.58C191.239 78.86 189.302 79.0933 186.922 79.28C184.542 79.4667 182.279 79.56 180.132 79.56C175.326 79.56 171.779 79 169.492 77.88C167.252 76.76 165.782 74.9633 165.082 72.49C164.382 70.0167 164.032 66.26 164.032 61.22C164.032 56.2733 164.336 52.5633 164.942 50.09C165.596 47.6167 167.019 45.7733 169.212 44.56C171.452 43.3467 174.976 42.74 179.782 42.74C184.262 42.74 187.506 43.3467 189.512 44.56C191.519 45.7267 192.779 47.5233 193.292 49.95C193.852 52.33 194.132 56.0633 194.132 61.15V63.18ZM179.642 47.92C176.609 47.92 174.416 48.2 173.062 48.76C171.756 49.2733 170.869 50.2767 170.402 51.77C169.982 53.2167 169.749 55.5733 169.702 58.84H188.672V58.28C188.672 55.2 188.392 52.9367 187.832 51.49C187.319 50.0433 186.456 49.0867 185.242 48.62C184.029 48.1533 182.162 47.92 179.642 47.92ZM214.262 79.56C210.156 79.56 207.169 78.8133 205.302 77.32C203.436 75.78 202.502 73.0733 202.502 69.2C202.502 66.4467 202.829 64.3 203.482 62.76C204.136 61.22 205.232 60.1 206.772 59.4C208.359 58.7 210.576 58.35 213.422 58.35C214.776 58.35 219.232 58.4667 226.792 58.7V56.6C226.792 53.8 226.512 51.8167 225.952 50.65C225.439 49.4833 224.459 48.7367 223.012 48.41C221.612 48.0833 219.209 47.92 215.802 47.92C214.309 47.92 212.419 48.0133 210.132 48.2C207.892 48.34 206.142 48.5033 204.882 48.69V43.72C208.569 43.0667 212.886 42.74 217.832 42.74C222.032 42.74 225.159 43.1833 227.212 44.07C229.312 44.91 230.712 46.31 231.412 48.27C232.112 50.1833 232.462 52.9833 232.462 56.67V79H227.352L227.072 74.03H226.652C225.672 76.27 224.086 77.7633 221.892 78.51C219.746 79.21 217.202 79.56 214.262 79.56ZM216.432 74.45C218.766 74.45 220.656 74.24 222.102 73.82C223.596 73.4 224.669 72.5833 225.322 71.37C226.302 69.69 226.792 67.3567 226.792 64.37V62.76H214.892C212.932 62.76 211.486 62.9 210.552 63.18C209.666 63.46 209.036 64.02 208.662 64.86C208.289 65.6533 208.102 66.9133 208.102 68.64C208.102 70.32 208.312 71.5567 208.732 72.35C209.152 73.1433 209.922 73.7033 211.042 74.03C212.209 74.31 214.006 74.45 216.432 74.45ZM244.664 43.3H249.704L249.984 50.09H250.404C251.244 47.29 252.644 45.3767 254.604 44.35C256.564 43.2767 259.131 42.74 262.304 42.74V48.83C259.084 48.83 256.611 49.32 254.884 50.3C253.158 51.28 251.968 52.7967 251.314 54.85C250.661 56.8567 250.334 59.5867 250.334 63.04V79H244.664V43.3ZM292.706 78.65C291.446 78.8833 289.906 79.0933 288.086 79.28C286.312 79.4667 284.609 79.56 282.976 79.56C278.589 79.56 275.369 78.93 273.316 77.67C271.262 76.41 269.932 74.5433 269.326 72.07C268.766 69.5967 268.486 65.9567 268.486 61.15C268.486 56.4367 268.836 52.7967 269.536 50.23C270.236 47.6633 271.612 45.7733 273.666 44.56C275.719 43.3467 278.752 42.74 282.766 42.74C284.352 42.74 286.032 42.8333 287.806 43.02C289.626 43.2067 291.166 43.4167 292.426 43.65V48.69C289.626 48.1767 286.872 47.92 284.166 47.92C281.179 47.92 278.986 48.27 277.586 48.97C276.232 49.67 275.322 50.9067 274.856 52.68C274.389 54.4533 274.156 57.2767 274.156 61.15C274.156 65.07 274.389 67.94 274.856 69.76C275.369 71.5333 276.302 72.7467 277.656 73.4C279.056 74.0533 281.296 74.38 284.376 74.38C286.662 74.38 289.439 74.1467 292.706 73.68V78.65ZM326.373 58.91C326.373 55.5967 326.163 53.24 325.743 51.84C325.323 50.3933 324.529 49.4367 323.363 48.97C322.196 48.5033 320.236 48.27 317.483 48.27C314.543 48.27 312.373 48.7367 310.973 49.67C309.619 50.6033 308.756 51.8867 308.383 53.52C308.056 55.1533 307.893 57.51 307.893 60.59V79H302.223V26.99H307.893V47.99H308.243C308.989 46.31 310.249 45.0267 312.023 44.14C313.843 43.2533 316.433 42.81 319.793 42.81C323.246 42.81 325.836 43.3 327.563 44.28C329.336 45.2133 330.526 46.66 331.133 48.62C331.739 50.5333 332.043 53.2167 332.043 56.67V79H326.373V58.91Z" fill="#848D93"/>
<path d="M173.381 32V25.5811H172.212V24.6035H173.381V23.9746C173.381 23.1497 173.616 22.5072 174.085 22.0469C174.559 21.5866 175.227 21.3564 176.088 21.3564C176.598 21.3564 177.243 21.4954 178.022 21.7734L177.811 22.8398C177.241 22.612 176.699 22.498 176.184 22.498C175.641 22.498 175.249 22.6211 175.008 22.8672C174.771 23.1087 174.652 23.4733 174.652 23.9609V24.6035H176.163V25.5811H174.652V32H173.381ZM178.651 32H177.38V24.6035H178.651V32ZM186.105 24.6035L186.146 25.5332C186.711 24.8223 187.45 24.4668 188.361 24.4668C189.924 24.4668 190.713 25.3486 190.726 27.1123V32H189.462V27.1055C189.457 26.5723 189.334 26.1781 189.093 25.9229C188.856 25.6676 188.484 25.54 187.978 25.54C187.568 25.54 187.208 25.6494 186.898 25.8682C186.588 26.0869 186.347 26.374 186.174 26.7295V32H184.909V24.6035H186.105ZM196.526 28.2402C196.526 27.1055 196.795 26.194 197.333 25.5059C197.87 24.8132 198.574 24.4668 199.445 24.4668C200.311 24.4668 200.997 24.763 201.503 25.3555V21.5H202.767V32H201.605L201.544 31.207C201.038 31.8268 200.334 32.1367 199.431 32.1367C198.574 32.1367 197.875 31.7858 197.333 31.084C196.795 30.3822 196.526 29.4661 196.526 28.3359V28.2402ZM197.791 28.3838C197.791 29.2223 197.964 29.8786 198.31 30.3525C198.657 30.8265 199.135 31.0635 199.746 31.0635C200.548 31.0635 201.133 30.7035 201.503 29.9834V26.5859C201.124 25.8887 200.543 25.54 199.759 25.54C199.14 25.54 198.657 25.7793 198.31 26.2578C197.964 26.7363 197.791 27.445 197.791 28.3838ZM219.029 30.1475L220.751 24.6035H222.105L219.131 33.1416C218.671 34.3721 217.939 34.9873 216.937 34.9873L216.697 34.9668L216.226 34.8779V33.8525L216.568 33.8799C216.996 33.8799 217.329 33.7933 217.566 33.6201C217.807 33.4469 218.005 33.1302 218.16 32.6699L218.441 31.918L215.802 24.6035H217.183L219.029 30.1475ZM226.995 28.2334C226.995 27.5088 227.136 26.8571 227.419 26.2783C227.706 25.6995 228.103 25.2529 228.608 24.9385C229.119 24.624 229.7 24.4668 230.352 24.4668C231.359 24.4668 232.172 24.8154 232.792 25.5127C233.416 26.21 233.729 27.1374 233.729 28.2949V28.3838C233.729 29.1038 233.59 29.751 233.312 30.3252C233.038 30.8949 232.644 31.3392 232.129 31.6582C231.618 31.9772 231.031 32.1367 230.365 32.1367C229.363 32.1367 228.549 31.7881 227.925 31.0908C227.305 30.3936 226.995 29.4707 226.995 28.3223V28.2334ZM228.267 28.3838C228.267 29.2041 228.456 29.8626 228.834 30.3594C229.217 30.8561 229.727 31.1045 230.365 31.1045C231.008 31.1045 231.518 30.8538 231.896 30.3525C232.275 29.8467 232.464 29.1403 232.464 28.2334C232.464 27.4222 232.27 26.766 231.883 26.2646C231.5 25.7588 230.99 25.5059 230.352 25.5059C229.727 25.5059 229.224 25.7542 228.841 26.251C228.458 26.7477 228.267 27.4587 228.267 28.3838ZM244.081 31.2686C243.589 31.8473 242.866 32.1367 241.914 32.1367C241.125 32.1367 240.524 31.9089 240.109 31.4531C239.699 30.9928 239.492 30.3138 239.487 29.416V24.6035H240.752V29.3818C240.752 30.5029 241.207 31.0635 242.119 31.0635C243.085 31.0635 243.728 30.7035 244.047 29.9834V24.6035H245.311V32H244.108L244.081 31.2686ZM258.804 28.2402C258.804 27.1055 259.073 26.194 259.611 25.5059C260.149 24.8132 260.853 24.4668 261.723 24.4668C262.589 24.4668 263.275 24.763 263.781 25.3555V21.5H265.045V32H263.883L263.822 31.207C263.316 31.8268 262.612 32.1367 261.709 32.1367C260.853 32.1367 260.153 31.7858 259.611 31.084C259.073 30.3822 258.804 29.4661 258.804 28.3359V28.2402ZM260.069 28.3838C260.069 29.2223 260.242 29.8786 260.588 30.3525C260.935 30.8265 261.413 31.0635 262.024 31.0635C262.826 31.0635 263.412 30.7035 263.781 29.9834V26.5859C263.402 25.8887 262.821 25.54 262.037 25.54C261.418 25.54 260.935 25.7793 260.588 26.2578C260.242 26.7363 260.069 27.445 260.069 28.3838ZM274.283 32.1367C273.281 32.1367 272.465 31.8086 271.836 31.1523C271.207 30.4915 270.893 29.6097 270.893 28.5068V28.2744C270.893 27.5407 271.032 26.8867 271.31 26.3125C271.592 25.7337 271.984 25.2826 272.486 24.959C272.991 24.6309 273.538 24.4668 274.126 24.4668C275.088 24.4668 275.835 24.7835 276.368 25.417C276.902 26.0505 277.168 26.9574 277.168 28.1377V28.6641H272.157C272.176 29.3932 272.388 29.9834 272.793 30.4346C273.203 30.8812 273.723 31.1045 274.352 31.1045C274.798 31.1045 275.177 31.0133 275.487 30.8311C275.796 30.6488 276.068 30.4072 276.3 30.1064L277.072 30.708C276.453 31.6605 275.523 32.1367 274.283 32.1367ZM274.126 25.5059C273.616 25.5059 273.187 25.6927 272.841 26.0664C272.495 26.4355 272.28 26.9551 272.198 27.625H275.904V27.5293C275.867 26.8867 275.694 26.39 275.384 26.0391C275.074 25.6836 274.655 25.5059 274.126 25.5059ZM285.183 30.2842L287.015 24.6035H288.307L285.654 32H284.69L282.011 24.6035H283.303L285.183 30.2842Z" fill="#848D93"/>
</svg>
